# xmcd
#
# Track frame offsets: 
#        182
#        103157
#        200507
#
# Disc length: 3365 seconds
#
# Revision: 1
# Processed by: cddbd v1.5.2PL0 Copyright (c) Steve Scherf et al.
# Submitted via: ExactAudioCopy v0.99pb5
#
DISCID=240d2303
DTITLE=Max Folmer - Ulysses
DYEAR=1992
DGENRE=New Age
TTITLE0=Ancient Calling
TTITLE1=The Syrenes
TTITLE2=Return to Ithaca
EXTD=YEAR: 1992
EXTT0=
EXTT1=
EXTT2=
PLAYORDER=
